<svg width="44" height="44" viewBox="0 0 44 44" fill="none" xmlns="http://www.w3.org/2000/svg">
<g filter="url(#filter0_b_2983_69454)">
<path d="M2 22C2 10.9543 10.9543 2 22 2C33.0457 2 42 10.9543 42 22C42 33.0457 33.0457 42 22 42C10.9543 42 2 33.0457 2 22Z" fill="#635A87"/>
<path d="M2 22C2 10.9543 10.9543 2 22 2C33.0457 2 42 10.9543 42 22C42 33.0457 33.0457 42 22 42C10.9543 42 2 33.0457 2 22Z" stroke="#3F3956" stroke-width="4"/>
<path d="M17.9512 21.012C18.2312 20.788 18.4085 20.5593 18.4832 20.326C18.5672 20.0927 18.6092 19.878 18.6092 19.682C18.6092 19.2993 18.4925 18.9773 18.2592 18.716C18.0258 18.4453 17.6385 18.31 17.0972 18.31C16.5838 18.31 16.2058 18.436 15.9632 18.688C15.7298 18.94 15.5618 19.262 15.4592 19.654C15.4312 19.7753 15.3752 19.8687 15.2912 19.934C15.2072 19.99 15.1232 20.018 15.0392 20.018H13.9332C13.8305 20.018 13.7372 19.9853 13.6532 19.92C13.5785 19.8453 13.5458 19.752 13.5552 19.64C13.5832 19.22 13.6905 18.8233 13.8772 18.45C14.0638 18.0767 14.3112 17.75 14.6192 17.47C14.9365 17.19 15.3052 16.9707 15.7252 16.812C16.1452 16.644 16.5978 16.56 17.0832 16.56C17.6712 16.56 18.1798 16.658 18.6092 16.854C19.0385 17.0407 19.3932 17.288 19.6732 17.596C19.9532 17.8947 20.1585 18.2307 20.2892 18.604C20.4292 18.968 20.4992 19.332 20.4992 19.696C20.4992 19.9293 20.4852 20.1533 20.4572 20.368C20.4292 20.5733 20.3638 20.7833 20.2612 20.998C20.1585 21.2033 20.0092 21.4227 19.8132 21.656C19.6172 21.88 19.3558 22.1227 19.0292 22.384L16.4392 24.75H20.3312C20.4338 24.75 20.5225 24.7873 20.5972 24.862C20.6718 24.9367 20.7092 25.0253 20.7092 25.128V26.122C20.7092 26.2247 20.6718 26.3133 20.5972 26.388C20.5225 26.4627 20.4338 26.5 20.3312 26.5H13.7932C13.6905 26.5 13.6018 26.4627 13.5272 26.388C13.4525 26.3133 13.4152 26.2247 13.4152 26.122V25.268C13.4152 25.1093 13.4618 24.974 13.5552 24.862C13.6485 24.7407 13.7278 24.6567 13.7932 24.61L17.9512 21.012ZM26.2854 16.7C26.9761 16.7 27.5734 16.7933 28.0774 16.98C28.5908 17.1573 29.0154 17.414 29.3514 17.75C29.6968 18.086 29.9581 18.492 30.1354 18.968C30.3221 19.444 30.4341 19.976 30.4714 20.564C30.5088 21.2547 30.5088 21.9453 30.4714 22.636C30.4341 23.224 30.3221 23.756 30.1354 24.232C29.9581 24.708 29.7014 25.114 29.3654 25.45C29.0294 25.786 28.6094 26.0473 28.1054 26.234C27.6108 26.4113 27.0274 26.5 26.3554 26.5H22.8274C22.7248 26.5 22.6361 26.4627 22.5614 26.388C22.4868 26.3133 22.4494 26.2247 22.4494 26.122V17.078C22.4494 16.9753 22.4868 16.8867 22.5614 16.812C22.6361 16.7373 22.7248 16.7 22.8274 16.7H26.2854ZM28.5814 20.564C28.5628 20.2653 28.5021 19.99 28.3994 19.738C28.3061 19.4767 28.1614 19.2527 27.9654 19.066C27.7788 18.87 27.5408 18.7207 27.2514 18.618C26.9621 18.506 26.6168 18.45 26.2154 18.45H24.3394V24.75H26.2854C26.6681 24.75 26.9994 24.6987 27.2794 24.596C27.5594 24.484 27.7928 24.3347 27.9794 24.148C28.1661 23.9613 28.3061 23.7373 28.3994 23.476C28.5021 23.2147 28.5628 22.9347 28.5814 22.636C28.6188 21.9453 28.6188 21.2547 28.5814 20.564Z" fill="white"/>
</g>
<defs>
<filter id="filter0_b_2983_69454" x="-50.8884" y="-50.8884" width="145.777" height="145.777" filterUnits="userSpaceOnUse" color-interpolation-filters="sRGB">
<feFlood flood-opacity="0" result="BackgroundImageFix"/>
<feGaussianBlur in="BackgroundImageFix" stdDeviation="25.4442"/>
<feComposite in2="SourceAlpha" operator="in" result="effect1_backgroundBlur_2983_69454"/>
<feBlend mode="normal" in="SourceGraphic" in2="effect1_backgroundBlur_2983_69454" result="shape"/>
</filter>
</defs>
</svg>
