<svg width="44" height="44" viewBox="0 0 44 44" fill="none" xmlns="http://www.w3.org/2000/svg">
<g filter="url(#filter0_b_2983_70882)">
<path d="M2 22C2 10.9543 10.9543 2 22 2C33.0457 2 42 10.9543 42 22C42 33.0457 33.0457 42 22 42C10.9543 42 2 33.0457 2 22Z" fill="#635A87"/>
<path d="M2 22C2 10.9543 10.9543 2 22 2C33.0457 2 42 10.9543 42 22C42 33.0457 33.0457 42 22 42C10.9543 42 2 33.0457 2 22Z" stroke="#3F3956" stroke-width="4"/>
<path d="M20.0899 16.7C20.1926 16.7 20.2813 16.7373 20.3559 16.812C20.4306 16.8867 20.4679 16.9753 20.4679 17.078V18.072C20.4679 18.1747 20.4306 18.2727 20.3559 18.366C20.2906 18.45 20.2253 18.5247 20.1599 18.59L18.1159 20.746C18.5359 20.802 18.9139 20.9047 19.2499 21.054C19.5953 21.2033 19.8893 21.3993 20.1319 21.642C20.3746 21.8753 20.5613 22.1553 20.6919 22.482C20.8226 22.8087 20.8879 23.1727 20.8879 23.574C20.8879 24.0593 20.7899 24.4933 20.5939 24.876C20.4073 25.2493 20.1413 25.5667 19.7959 25.828C19.4599 26.0893 19.0586 26.29 18.5919 26.43C18.1346 26.57 17.6353 26.64 17.0939 26.64C16.4406 26.64 15.8713 26.5653 15.3859 26.416C14.9099 26.2573 14.5086 26.0567 14.1819 25.814C13.8646 25.5713 13.6219 25.296 13.4539 24.988C13.2859 24.68 13.1879 24.3767 13.1599 24.078C13.1506 23.966 13.1833 23.8773 13.2579 23.812C13.3419 23.7373 13.4353 23.7 13.5379 23.7H14.6439C14.7373 23.7 14.8119 23.7327 14.8679 23.798C14.9333 23.854 14.9986 23.938 15.0639 24.05C15.1199 24.162 15.1946 24.2693 15.2879 24.372C15.3813 24.4653 15.5026 24.554 15.6519 24.638C15.8106 24.7127 16.0066 24.7733 16.2399 24.82C16.4733 24.8667 16.7579 24.89 17.0939 24.89C17.6633 24.89 18.1206 24.778 18.4659 24.554C18.8206 24.3207 18.9979 23.994 18.9979 23.574C18.9979 23.154 18.8206 22.8553 18.4659 22.678C18.1206 22.4913 17.6633 22.398 17.0939 22.398H15.9319C15.8293 22.398 15.7406 22.3607 15.6659 22.286C15.5913 22.2113 15.5539 22.1227 15.5539 22.02V21.026C15.5539 20.9233 15.5866 20.83 15.6519 20.746C15.7266 20.6527 15.7966 20.5733 15.8619 20.508L17.8219 18.45H13.9579C13.8553 18.45 13.7666 18.4127 13.6919 18.338C13.6173 18.2633 13.5799 18.1747 13.5799 18.072V17.078C13.5799 16.9753 13.6173 16.8867 13.6919 16.812C13.7666 16.7373 13.8553 16.7 13.9579 16.7H20.0899ZM26.4426 16.7C27.1333 16.7 27.7306 16.7933 28.2346 16.98C28.748 17.1573 29.1726 17.414 29.5086 17.75C29.854 18.086 30.1153 18.492 30.2926 18.968C30.4793 19.444 30.5913 19.976 30.6286 20.564C30.666 21.2547 30.666 21.9453 30.6286 22.636C30.5913 23.224 30.4793 23.756 30.2926 24.232C30.1153 24.708 29.8586 25.114 29.5226 25.45C29.1866 25.786 28.7666 26.0473 28.2626 26.234C27.768 26.4113 27.1846 26.5 26.5126 26.5H22.9846C22.882 26.5 22.7933 26.4627 22.7186 26.388C22.644 26.3133 22.6066 26.2247 22.6066 26.122V17.078C22.6066 16.9753 22.644 16.8867 22.7186 16.812C22.7933 16.7373 22.882 16.7 22.9846 16.7H26.4426ZM28.7386 20.564C28.72 20.2653 28.6593 19.99 28.5566 19.738C28.4633 19.4767 28.3186 19.2527 28.1226 19.066C27.936 18.87 27.698 18.7207 27.4086 18.618C27.1193 18.506 26.774 18.45 26.3726 18.45H24.4966V24.75H26.4426C26.8253 24.75 27.1566 24.6987 27.4366 24.596C27.7166 24.484 27.95 24.3347 28.1366 24.148C28.3233 23.9613 28.4633 23.7373 28.5566 23.476C28.6593 23.2147 28.72 22.9347 28.7386 22.636C28.776 21.9453 28.776 21.2547 28.7386 20.564Z" fill="white"/>
</g>
<defs>
<filter id="filter0_b_2983_70882" x="-50.8884" y="-50.8884" width="145.777" height="145.777" filterUnits="userSpaceOnUse" color-interpolation-filters="sRGB">
<feFlood flood-opacity="0" result="BackgroundImageFix"/>
<feGaussianBlur in="BackgroundImageFix" stdDeviation="25.4442"/>
<feComposite in2="SourceAlpha" operator="in" result="effect1_backgroundBlur_2983_70882"/>
<feBlend mode="normal" in="SourceGraphic" in2="effect1_backgroundBlur_2983_70882" result="shape"/>
</filter>
</defs>
</svg>
