<svg width="24" height="24" viewBox="0 0 24 24" fill="none" xmlns="http://www.w3.org/2000/svg">
<rect width="24" height="24" rx="12" fill="url(#paint0_linear_171_4741)"/>
<path d="M11.5899 6.05746C10.7905 6.05746 10.0705 6.23563 9.43032 6.59199C8.7897 6.94834 8.28676 7.43953 7.92069 8.06558C7.55462 8.69162 7.37158 9.39461 7.37158 10.1749C7.37158 10.9553 7.55462 11.6461 7.92069 12.277C8.28676 12.9079 8.7897 13.4015 9.43032 13.7579C10.0705 14.1142 10.7905 14.2924 11.5899 14.2924C12.3892 14.2924 13.0947 14.1142 13.7353 13.7579C14.3755 13.4015 14.8788 12.9079 15.2449 12.277C15.611 11.6465 15.794 10.9455 15.794 10.1749V6.05787H11.5903L11.5899 6.05746ZM13.0781 11.7133C12.6926 12.113 12.1969 12.313 11.5899 12.313C10.9829 12.313 10.4726 12.1134 10.0875 11.7133C9.70204 11.3136 9.50969 10.801 9.50969 10.1749C9.50969 9.54889 9.70204 9.03623 10.0875 8.63655C10.4726 8.23687 10.9736 8.03683 11.5899 8.03683C12.2062 8.03683 12.6926 8.23687 13.0781 8.63655C13.4632 9.03623 13.6559 9.54929 13.6559 10.1749C13.6559 10.8006 13.4632 11.314 13.0781 11.7133Z" fill="white"/>
<path d="M16.8477 18.5046L14.7391 18.5075C14.7391 17.9243 14.2674 17.4526 13.6871 17.4526H10.5322C8.78929 17.4526 7.37158 16.0349 7.37158 14.292H9.48013C9.48013 14.8723 9.95189 15.344 10.5322 15.344H13.6871C15.43 15.344 16.8477 16.7618 16.8477 18.5046Z" fill="white"/>
<defs>
<linearGradient id="paint0_linear_171_4741" x1="23.9668" y1="-0.327113" x2="-4.64329" y2="8.99785" gradientUnits="userSpaceOnUse">
<stop stop-color="#36B5EE"/>
<stop offset="0.33" stop-color="#4C98FA"/>
<stop offset="0.42" stop-color="#7A8DFD"/>
<stop offset="1" stop-color="#FF998C"/>
</linearGradient>
</defs>
</svg>
