<svg width="16" height="16" viewBox="0 0 16 16" fill="none" xmlns="http://www.w3.org/2000/svg">
  <g clip-path="url(#clip0_3678_9217)">
    <path
      d="M8.87228 13.1133C8.88267 13.1239 9.20094 13.2052 9.57948 13.2938C9.95808 13.3825 10.2719 13.4414 10.277 13.425C10.282 13.4085 10.3212 13.1407 10.364 12.83C10.45 12.206 10.6584 11.4775 10.881 11.0219C11.5749 9.60187 12.8198 8.66163 14.3298 8.41725L14.7143 8.35501V7.72772V7.10038L14.3658 7.04081C12.0825 6.65053 10.5939 4.91115 10.3155 2.30816C10.2973 2.13819 10.2756 1.99916 10.2672 1.99916C10.1902 1.99916 8.91425 2.31246 8.89012 2.33728C8.87267 2.35523 8.88565 2.51457 8.91901 2.69132C9.28823 4.64848 10.3454 6.24107 11.7173 6.90697L12.0464 7.06671L5.27917 7.07922L1 7.08716V8.3567L5.29018 8.36465L12.0415 8.3772L11.626 8.59167C10.5482 9.14802 9.69485 10.2393 9.19233 11.7042C9.04913 12.1215 8.83306 13.0729 8.87228 13.1133Z"
      fill="white" />
  </g>
  <defs>
    <clipPath id="clip0_3678_9217">
      <rect width="16" height="16" fill="white" />
    </clipPath>
  </defs>
</svg>
    