<svg width="32" height="32" viewBox="0 0 32 32" fill="none" xmlns="http://www.w3.org/2000/svg">
<rect x="32" y="32" width="32" height="32" rx="16" transform="rotate(-180 32 32)" fill="url(#paint0_linear_188_12)"/>
<path d="M16.8723 21.1141C16.8827 21.1247 17.2009 21.206 17.5795 21.2947C17.9581 21.3833 18.2719 21.4423 18.277 21.4258C18.282 21.4093 18.3212 21.1416 18.364 20.8309C18.45 20.2069 18.6584 19.4784 18.881 19.0227C19.5749 17.6027 20.8198 16.6625 22.3298 16.4181L22.7143 16.3559V15.7286V15.1012L22.3658 15.0417C20.0825 14.6514 18.5939 12.912 18.3155 10.309C18.2973 10.139 18.2756 10 18.2672 10C18.1902 10 16.9142 10.3133 16.8901 10.3381C16.8727 10.3561 16.8856 10.5154 16.919 10.6922C17.2882 12.6493 18.3454 14.2419 19.7173 14.9078L20.0464 15.0676L13.2792 15.0801L9 15.088V16.3576L13.2902 16.3655L20.0415 16.3781L19.626 16.5925C18.5482 17.1489 17.6949 18.2402 17.1923 19.705C17.0491 20.1224 16.8331 21.0738 16.8723 21.1141Z" fill="white"/>
<defs>
<linearGradient id="paint0_linear_188_12" x1="63.9557" y1="31.5638" x2="25.8089" y2="43.9971" gradientUnits="userSpaceOnUse">
<stop stop-color="#36B5EE"/>
<stop offset="0.33" stop-color="#4C98FA"/>
<stop offset="0.42" stop-color="#7A8DFD"/>
<stop offset="1" stop-color="#FF998C"/>
</linearGradient>
</defs>
</svg>
