<svg width="16" height="16" viewBox="0 0 16 16" fill="none" xmlns="http://www.w3.org/2000/svg">
<path d="M8.00052 14.3332C7.12452 14.3332 6.30113 14.1669 5.53035 13.8345C4.75957 13.5021 4.08913 13.0509 3.51902 12.481C2.9489 11.9111 2.49752 11.2409 2.16485 10.4705C1.83229 9.70006 1.66602 8.87689 1.66602 8.001C1.66602 7.125 1.83224 6.30161 2.16468 5.53084C2.49713 4.76006 2.94829 4.08961 3.51818 3.5195C4.08807 2.94939 4.75824 2.498 5.52868 2.16534C6.29913 1.83278 7.12229 1.6665 7.99818 1.6665C8.87418 1.6665 9.69757 1.83273 10.4683 2.16517C11.2391 2.49761 11.9096 2.94878 12.4797 3.51867C13.0498 4.08856 13.5012 4.75873 13.8338 5.52917C14.1664 6.29961 14.3327 7.12278 14.3327 7.99867C14.3327 8.87467 14.1665 9.69806 13.834 10.4688C13.5016 11.2396 13.0504 11.9101 12.4805 12.4802C11.9106 13.0503 11.2405 13.5017 10.47 13.8343C9.69957 14.1669 8.8764 14.3332 8.00052 14.3332ZM7.99935 13.3332C9.48824 13.3332 10.7493 12.8165 11.7827 11.7832C12.816 10.7498 13.3327 9.48873 13.3327 7.99984C13.3327 6.51095 12.816 5.24984 11.7827 4.2165C10.7493 3.18317 9.48824 2.6665 7.99935 2.6665C6.51046 2.6665 5.24935 3.18317 4.21602 4.2165C3.18268 5.24984 2.66602 6.51095 2.66602 7.99984C2.66602 9.48873 3.18268 10.7498 4.21602 11.7832C5.24935 12.8165 6.51046 13.3332 7.99935 13.3332ZM7.98268 12.5383C8.10402 12.5383 8.21018 12.4928 8.30118 12.4017C8.39229 12.3107 8.43785 12.2045 8.43785 12.0832V11.7307C8.95496 11.6606 9.42313 11.4663 9.84235 11.1478C10.2616 10.8295 10.4712 10.3468 10.4712 9.69984C10.4712 9.23317 10.3336 8.82034 10.0583 8.46134C9.78313 8.10245 9.24551 7.77856 8.44552 7.48967C7.74463 7.25034 7.27924 7.04306 7.04935 6.86784C6.81946 6.69262 6.70452 6.44773 6.70452 6.13317C6.70452 5.81861 6.82224 5.56306 7.05768 5.3665C7.29313 5.16995 7.61813 5.07167 8.03268 5.07167C8.28057 5.07167 8.49746 5.118 8.68335 5.21067C8.86924 5.30345 9.02629 5.42717 9.15452 5.58184C9.23574 5.68106 9.32974 5.75028 9.43651 5.7895C9.5434 5.82884 9.64457 5.82717 9.74002 5.7845C9.87035 5.73317 9.9594 5.64556 10.0072 5.52167C10.055 5.39767 10.043 5.284 9.97118 5.18067C9.7934 4.92934 9.57285 4.72011 9.30951 4.553C9.04629 4.38589 8.76685 4.29123 8.47118 4.269V3.9165C8.47118 3.79517 8.42563 3.689 8.33452 3.598C8.24352 3.50689 8.13735 3.46134 8.01602 3.46134C7.89468 3.46134 7.78852 3.50689 7.69752 3.598C7.6064 3.689 7.56085 3.79517 7.56085 3.9165V4.269C6.99252 4.37845 6.55602 4.609 6.25135 4.96067C5.94657 5.31245 5.79418 5.70328 5.79418 6.13317C5.79418 6.63406 5.9459 7.03706 6.24935 7.34217C6.55279 7.64728 7.04724 7.92289 7.73268 8.169C8.44124 8.42889 8.92524 8.66206 9.18468 8.8685C9.44402 9.07484 9.57368 9.35195 9.57368 9.69984C9.57368 10.1178 9.42285 10.4214 9.12118 10.6107C8.8194 10.8 8.47879 10.8947 8.09935 10.8947C7.78268 10.8947 7.49646 10.8156 7.24068 10.6575C6.9849 10.4994 6.77068 10.2708 6.59802 9.97167C6.53057 9.85456 6.43957 9.77573 6.32502 9.73517C6.21046 9.6945 6.09835 9.69578 5.98868 9.739C5.87046 9.78223 5.7839 9.86428 5.72902 9.98517C5.67424 10.1061 5.67374 10.2216 5.72752 10.3318C5.91385 10.7054 6.15702 11.0041 6.45702 11.228C6.75702 11.452 7.11385 11.6084 7.52752 11.6973V12.0832C7.52752 12.2045 7.57307 12.3107 7.66418 12.4017C7.75518 12.4928 7.86135 12.5383 7.98268 12.5383Z" fill="url(#paint0_linear_2597_5202)"/>
<defs>
<linearGradient id="paint0_linear_2597_5202" x1="14.3151" y1="1.49386" x2="-0.784611" y2="6.41537" gradientUnits="userSpaceOnUse">
<stop stop-color="#36B5EE"/>
<stop offset="0.33" stop-color="#4C98FA"/>
<stop offset="0.42" stop-color="#7A8DFD"/>
<stop offset="1" stop-color="#FF998C"/>
</linearGradient>
</defs>
</svg>
