<svg xmlns="http://www.w3.org/2000/svg" width="24" height="24" viewBox="0 0 24 24" fill="none">
  <path
    d="M12.275 22.3C12.0083 22.3 11.7542 22.25 11.5125 22.15C11.2708 22.05 11.05 21.9083 10.85 21.725L2.825 13.7C2.64167 13.5 2.5 13.2792 2.4 13.0375C2.3 12.7958 2.25 12.5417 2.25 12.275C2.25 12.0083 2.3 11.75 2.4 11.5C2.5 11.25 2.64167 11.0333 2.825 10.85L10.85 2.825C11.05 2.625 11.2708 2.47917 11.5125 2.3875C11.7542 2.29583 12.0083 2.25 12.275 2.25C12.5417 2.25 12.8 2.29583 13.05 2.3875C13.3 2.47917 13.5167 2.625 13.7 2.825L21.725 10.85C21.925 11.0333 22.0708 11.25 22.1625 11.5C22.2542 11.75 22.3 12.0083 22.3 12.275C22.3 12.5417 22.2542 12.7958 22.1625 13.0375C22.0708 13.2792 21.925 13.5 21.725 13.7L13.7 21.725C13.5167 21.9083 13.3 22.05 13.05 22.15C12.8 22.25 12.5417 22.3 12.275 22.3ZM12.275 20.3L20.3 12.275L12.275 4.25L4.25 12.275L12.275 20.3ZM12.275 13.275C12.5583 13.275 12.7958 13.1792 12.9875 12.9875C13.1792 12.7958 13.275 12.5583 13.275 12.275V8.275C13.275 7.99167 13.1792 7.75417 12.9875 7.5625C12.7958 7.37083 12.5583 7.275 12.275 7.275C11.9917 7.275 11.7542 7.37083 11.5625 7.5625C11.3708 7.75417 11.275 7.99167 11.275 8.275V12.275C11.275 12.5583 11.3708 12.7958 11.5625 12.9875C11.7542 13.1792 11.9917 13.275 12.275 13.275ZM12.275 16.275C12.5583 16.275 12.7958 16.1792 12.9875 15.9875C13.1792 15.7958 13.275 15.5583 13.275 15.275C13.275 14.9917 13.1792 14.7542 12.9875 14.5625C12.7958 14.3708 12.5583 14.275 12.275 14.275C11.9917 14.275 11.7542 14.3708 11.5625 14.5625C11.3708 14.7542 11.275 14.9917 11.275 15.275C11.275 15.5583 11.3708 15.7958 11.5625 15.9875C11.7542 16.1792 11.9917 16.275 12.275 16.275Z"
    fill="#EA8134" />
</svg>