<svg width="421" height="104" viewBox="0 0 421 104" fill="none" xmlns="http://www.w3.org/2000/svg">
<path d="M149.984 69.7455C145.423 67.2102 141.845 63.6972 139.239 59.2065C136.633 54.7159 135.333 49.7294 135.333 44.2423C135.333 38.7553 136.633 33.6846 139.239 29.2267C141.845 24.7687 145.423 21.2744 149.984 18.7391C154.54 16.2037 159.667 14.936 165.36 14.936C171.052 14.936 176.072 16.2037 180.633 18.7391C185.193 21.2744 188.772 24.7734 191.377 29.2267C193.983 33.6846 195.283 38.6851 195.283 44.2423C195.283 49.7995 193.978 54.7159 191.377 59.2065C188.772 63.6972 185.189 67.2102 180.633 69.7455C176.072 72.2809 170.982 73.5486 165.36 73.5486C159.737 73.5486 154.545 72.2809 149.984 69.7455ZM175.945 55.193C178.687 52.3489 180.057 48.7002 180.057 44.2423C180.057 39.7844 178.687 36.1357 175.945 33.2916C173.204 30.4476 169.673 29.0255 165.355 29.0255C161.037 29.0255 157.403 30.4476 154.662 33.2916C151.92 36.1357 150.55 39.7891 150.55 44.2423C150.55 48.6956 151.92 52.3489 154.662 55.193C157.403 58.0371 160.967 59.4591 165.355 59.4591C169.743 59.4591 173.204 58.0371 175.945 55.193Z" fill="url(#paint0_linear_2_33107)"/>
<path d="M279.193 16.3721H292.048V71.902H278.988V66.9669C276.588 69.0907 273.847 70.7185 270.759 71.8505C267.672 72.9826 264.416 73.5486 260.992 73.5486C255.505 73.5486 250.537 72.2809 246.079 69.7455C241.621 67.2102 238.141 63.6972 235.643 59.2065C233.141 54.7159 231.892 49.6966 231.892 44.1394C231.892 38.5822 233.141 33.6846 235.643 29.2267C238.146 24.7687 241.621 21.2744 246.079 18.7391C250.537 16.2037 255.505 14.936 260.992 14.936C264.486 14.936 267.794 15.5208 270.914 16.6855C274.034 17.8503 276.794 19.5296 279.193 21.7235V16.3768V16.3721ZM273.075 55.0386C275.919 52.1571 277.341 48.5272 277.341 44.1394C277.341 39.7516 275.919 36.117 273.075 33.2402C270.231 30.3587 266.61 28.9226 262.227 28.9226C259.346 28.9226 256.759 29.5915 254.462 30.9294C252.165 32.2672 250.364 34.0822 249.064 36.379C247.759 38.6758 247.108 41.2626 247.108 44.1441C247.108 48.5318 248.53 52.1665 251.375 55.0433C254.219 57.9248 257.834 59.3609 262.222 59.3609C266.61 59.3609 270.226 57.9201 273.07 55.0433L273.075 55.0386Z" fill="url(#paint1_linear_2_33107)"/>
<path d="M329.578 53.5978L342.844 16.3721H358.477L336.365 71.902H322.482L299.963 16.3721H315.9L329.578 53.5978Z" fill="url(#paint2_linear_2_33107)"/>
<path d="M408.145 16.3721H421V71.902H407.94V66.9669C405.54 69.0907 402.799 70.7185 399.712 71.8505C396.624 72.9826 393.368 73.5486 389.944 73.5486C384.457 73.5486 379.489 72.2809 375.031 69.7455C370.574 67.2102 367.093 63.6972 364.595 59.2065C362.093 54.7159 360.844 49.6966 360.844 44.1394C360.844 38.5822 362.093 33.6846 364.595 29.2267C367.098 24.7687 370.574 21.2744 375.031 18.7391C379.489 16.2037 384.457 14.936 389.944 14.936C393.438 14.936 396.746 15.5208 399.866 16.6855C402.986 17.8503 405.746 19.5296 408.145 21.7235V16.3768V16.3721ZM402.027 55.0386C404.871 52.1571 406.293 48.5272 406.293 44.1394C406.293 39.7516 404.871 36.117 402.027 33.2402C399.183 30.3587 395.562 28.9226 391.179 28.9226C388.298 28.9226 385.711 29.5915 383.414 30.9294C381.117 32.2672 379.316 34.0822 378.016 36.379C376.711 38.6758 376.061 41.2626 376.061 44.1441C376.061 48.5318 377.483 52.1665 380.327 55.0433C383.171 57.9248 386.787 59.3609 391.175 59.3609C395.562 59.3609 399.178 57.9201 402.022 55.0433L402.027 55.0386Z" fill="url(#paint3_linear_2_33107)"/>
<path d="M228.589 73.5487C216.16 73.5487 206.065 63.4541 206.065 51.0486V22.5001C206.065 18.3696 202.707 15.0157 198.581 15.0157V0C210.987 0 221.081 10.0946 221.081 22.5001V51.0486C221.081 55.1791 224.44 58.533 228.566 58.533L228.589 73.5487Z" fill="url(#paint4_linear_2_33107)"/>
<path d="M126.076 48.4572H84.1209C84.7384 52.2275 86.2306 55.1277 88.5929 57.1485C90.9599 59.1693 93.9909 60.1844 97.691 60.1844C100.226 60.1844 102.523 59.6184 104.581 58.4864C106.64 57.3543 108.249 55.7966 109.414 53.8086H125.248C123.19 59.8429 119.677 64.6423 114.709 68.2068C109.736 71.7712 104.067 73.5535 97.691 73.5535C92.2742 73.5535 87.3719 72.2671 82.9841 69.699C78.5964 67.1262 75.1489 63.6179 72.651 59.16C70.1484 54.702 68.8994 49.7342 68.8994 44.2472C68.8994 38.7602 70.1484 33.7737 72.651 29.283C75.1536 24.7923 78.5964 21.2793 82.9841 18.744C87.3719 16.2086 92.2742 14.9409 97.691 14.9409C103.108 14.9409 108.197 16.246 112.552 18.8469C116.907 21.4524 120.299 24.9841 122.731 29.4373C125.164 33.8953 126.38 38.7602 126.38 44.0414C126.38 45.5523 126.277 47.0258 126.071 48.4619L126.076 48.4572ZM89.3085 30.4618C87.0117 32.3142 85.4167 34.8823 84.5279 38.1754H111.369C110.34 34.8168 108.642 32.23 106.28 30.4103C103.913 28.5954 101.05 27.6832 97.691 27.6832C94.3324 27.6832 91.6053 28.6094 89.3085 30.4618Z" fill="url(#paint5_linear_2_33107)"/>
<path d="M30.0266 14.9316C24.3338 14.9316 19.2116 16.1993 14.6507 18.7347C10.0899 21.27 6.51151 24.769 3.90599 29.2222C1.30047 33.6802 0 38.6807 0 44.2379C0 49.7951 1.30047 54.7115 3.90599 59.2021C6.51151 63.6928 10.0899 67.2058 14.6507 69.7412C19.2069 72.2765 24.3338 73.5442 30.0266 73.5442C35.7195 73.5442 40.7387 72.2765 45.2995 69.7412C49.8604 67.2058 53.439 63.6928 56.0445 59.2021C58.65 54.7115 59.9505 49.7249 59.9505 44.2379V14.9316H30.0266ZM40.6172 55.1933C37.876 58.0374 34.3442 59.4594 30.0266 59.4594C25.709 59.4594 22.0745 58.0374 19.3333 55.1933C16.5921 52.3492 15.2215 48.7005 15.2215 44.2426C15.2215 39.7847 16.5921 36.136 19.3333 33.2919C22.0745 30.4478 25.6389 29.0258 30.0266 29.0258C34.4144 29.0258 37.876 30.4478 40.6172 33.2919C43.3584 36.136 44.729 39.7894 44.729 44.2426C44.729 48.6958 43.3584 52.3492 40.6172 55.1933Z" fill="url(#paint6_linear_2_33107)"/>
<path d="M67.4582 103.538L52.4473 103.561C52.4473 99.4073 49.0885 96.0534 44.9581 96.0534H22.5002C10.0947 96.0534 0 85.9634 0 73.5532H15.0109C15.0109 77.6837 18.3697 81.0423 22.5002 81.0423H44.9581C57.3635 81.0423 67.4582 91.1323 67.4582 103.542V103.538Z" fill="url(#paint7_linear_2_33107)"/>
<defs>
<linearGradient id="paint0_linear_2_33107" x1="420.346" y1="-200.822" x2="33.3059" y2="-200.822" gradientUnits="userSpaceOnUse">
<stop stop-color="#36B5EE"/>
<stop offset="0.33" stop-color="#4C98FA"/>
<stop offset="0.67" stop-color="#7A8DFD"/>
<stop offset="1" stop-color="#FF998C"/>
</linearGradient>
<linearGradient id="paint1_linear_2_33107" x1="420.345" y1="44.2423" x2="33.3057" y2="44.2423" gradientUnits="userSpaceOnUse">
<stop stop-color="#36B5EE"/>
<stop offset="0.33" stop-color="#4C98FA"/>
<stop offset="0.67" stop-color="#7A8DFD"/>
<stop offset="1" stop-color="#FF998C"/>
</linearGradient>
<linearGradient id="paint2_linear_2_33107" x1="420.345" y1="44.1394" x2="33.3065" y2="44.1394" gradientUnits="userSpaceOnUse">
<stop stop-color="#36B5EE"/>
<stop offset="0.33" stop-color="#4C98FA"/>
<stop offset="0.67" stop-color="#7A8DFD"/>
<stop offset="1" stop-color="#FF998C"/>
</linearGradient>
<linearGradient id="paint3_linear_2_33107" x1="420.345" y1="44.2423" x2="33.3055" y2="44.2423" gradientUnits="userSpaceOnUse">
<stop stop-color="#36B5EE"/>
<stop offset="0.33" stop-color="#4C98FA"/>
<stop offset="0.67" stop-color="#7A8DFD"/>
<stop offset="1" stop-color="#FF998C"/>
</linearGradient>
<linearGradient id="paint4_linear_2_33107" x1="420.345" y1="36.772" x2="33.3061" y2="36.772" gradientUnits="userSpaceOnUse">
<stop stop-color="#36B5EE"/>
<stop offset="0.33" stop-color="#4C98FA"/>
<stop offset="0.67" stop-color="#7A8DFD"/>
<stop offset="1" stop-color="#FF998C"/>
</linearGradient>
<linearGradient id="paint5_linear_2_33107" x1="420.345" y1="44.2425" x2="33.3062" y2="44.2425" gradientUnits="userSpaceOnUse">
<stop stop-color="#36B5EE"/>
<stop offset="0.33" stop-color="#4C98FA"/>
<stop offset="0.67" stop-color="#7A8DFD"/>
<stop offset="1" stop-color="#FF998C"/>
</linearGradient>
<linearGradient id="paint6_linear_2_33107" x1="420.346" y1="44.2426" x2="33.3058" y2="44.2426" gradientUnits="userSpaceOnUse">
<stop stop-color="#36B5EE"/>
<stop offset="0.33" stop-color="#4C98FA"/>
<stop offset="0.67" stop-color="#7A8DFD"/>
<stop offset="1" stop-color="#FF998C"/>
</linearGradient>
<linearGradient id="paint7_linear_2_33107" x1="420.345" y1="88.5549" x2="33.3058" y2="88.5549" gradientUnits="userSpaceOnUse">
<stop stop-color="#36B5EE"/>
<stop offset="0.33" stop-color="#4C98FA"/>
<stop offset="0.67" stop-color="#7A8DFD"/>
<stop offset="1" stop-color="#FF998C"/>
</linearGradient>
</defs>
</svg>
