<svg xmlns="http://www.w3.org/2000/svg" width="9" height="12" viewBox="0 0 9 12" fill="none">
  <path
    d="M4.00637 0C3.24717 0 2.56335 0.169222 1.9553 0.507669C1.34687 0.846116 0.869194 1.31264 0.521516 1.90723C0.173839 2.50182 0 3.16948 0 3.9106C0 4.65172 0.173839 5.30785 0.521516 5.90705C0.869194 6.50626 1.34687 6.97509 1.9553 7.31353C2.56335 7.65198 3.24717 7.8212 4.00637 7.8212C4.76557 7.8212 5.43554 7.65198 6.04397 7.31353C6.65203 6.97509 7.13008 6.50626 7.47776 5.90705C7.82544 5.30823 7.99927 4.64249 7.99927 3.9106V0.000384975H4.00675L4.00637 0ZM5.41977 5.37169C5.05363 5.75129 4.58288 5.94128 4.00637 5.94128C3.42985 5.94128 2.94526 5.75168 2.57951 5.37169C2.21337 4.99209 2.03068 4.50519 2.03068 3.9106C2.03068 3.31601 2.21337 2.82911 2.57951 2.44951C2.94526 2.06991 3.42101 1.87992 4.00637 1.87992C4.59173 1.87992 5.05363 2.06991 5.41977 2.44951C5.78552 2.82911 5.96859 3.3164 5.96859 3.9106C5.96859 4.50481 5.78552 4.99248 5.41977 5.37169Z"
    fill="white" />
  <path
    d="M9 11.8213L6.99739 11.824C6.99739 11.2702 6.54934 10.8221 5.99821 10.8221H3.00179C1.34648 10.8221 0 9.47563 0 7.82031H2.00261C2.00261 8.37144 2.45066 8.8195 3.00179 8.8195H5.99821C7.65352 8.8195 9 10.166 9 11.8213Z"
    fill="white" />
</svg>