<svg width="24" height="24" viewBox="0 0 24 24" fill="none" xmlns="http://www.w3.org/2000/svg">
  <path
    d="M11.1224 1C9.77275 1 8.55707 1.30084 7.47609 1.90252C6.39443 2.50421 5.54523 3.33357 4.92714 4.39062C4.30905 5.44767 4 6.63463 4 7.95218C4 9.26973 4.30905 10.4362 4.92714 11.5014C5.54523 12.5667 6.39443 13.4002 7.47609 14.0018C8.55707 14.6035 9.77275 14.9044 11.1224 14.9044C12.4721 14.9044 13.6632 14.6035 14.7448 14.0018C15.8258 13.4002 16.6757 12.5667 17.2938 11.5014C17.9119 10.4369 18.2209 9.25332 18.2209 7.95218V1.00068H11.1231L11.1224 1ZM13.6351 10.5497C12.9842 11.2245 12.1473 11.5623 11.1224 11.5623C10.0975 11.5623 9.23602 11.2252 8.58579 10.5497C7.93488 9.87484 7.6101 9.00923 7.6101 7.95218C7.6101 6.89513 7.93488 6.02953 8.58579 5.35469C9.23602 4.67984 10.0818 4.34208 11.1224 4.34208C12.1631 4.34208 12.9842 4.67984 13.6351 5.35469C14.2854 6.02953 14.6108 6.89582 14.6108 7.95218C14.6108 9.00855 14.2854 9.87552 13.6351 10.5497Z"
    fill="url(#paint0_linear_4790_18697)" />
  <path
    d="M20 22.0152L16.4398 22.02C16.4398 21.0354 15.6433 20.2389 14.6635 20.2389H9.33652C6.39374 20.2389 4 17.8451 4 14.9023H7.56019C7.56019 15.8821 8.35674 16.6787 9.33652 16.6787H14.6635C17.6063 16.6787 20 19.0724 20 22.0152Z"
    fill="url(#paint1_linear_4790_18697)" />
  <defs>
    <linearGradient id="paint0_linear_4790_18697" x1="18.2012" y1="0.810488" x2="1.32331"
      y2="6.43681" gradientUnits="userSpaceOnUse">
      <stop stop-color="#36B5EE" />
      <stop offset="0.33" stop-color="#4C98FA" />
      <stop offset="0.42" stop-color="#7A8DFD" />
      <stop offset="1" stop-color="#FF998C" />
    </linearGradient>
    <linearGradient id="paint1_linear_4790_18697" x1="19.9778" y1="14.8053" x2="6.24842"
      y2="24.8646" gradientUnits="userSpaceOnUse">
      <stop stop-color="#36B5EE" />
      <stop offset="0.33" stop-color="#4C98FA" />
      <stop offset="0.42" stop-color="#7A8DFD" />
      <stop offset="1" stop-color="#FF998C" />
    </linearGradient>
  </defs>
</svg>
    