<svg width="42" height="42" viewBox="0 0 42 42" fill="none" xmlns="http://www.w3.org/2000/svg">
<g id="H4">
<g id="Vector">
<path d="M17.1895 42.0001H9.97124C4.46525 42.0001 0 37.5349 0 32.029V24.7773H3.65948V32.029C3.65948 35.487 6.47964 38.3071 9.93767 38.3071H17.1895V42.0001Z" fill="#7553FF"/>
<path d="M17.1895 42.0001H9.97124C4.46525 42.0001 0 37.5349 0 32.029V24.7773H3.65948V32.029C3.65948 35.487 6.47964 38.3071 9.93767 38.3071H17.1895V42.0001Z" stroke="#7553FF"/>
</g>
<g id="Vector_2">
<path d="M32.0291 41.9999H24.7773V38.3405H32.0291C35.4871 38.3405 38.3073 35.5204 38.3073 32.0624V24.7771H41.9667V32.0288C42.0003 37.5012 37.5015 41.9999 32.0291 41.9999Z" fill="#7553FF"/>
<path d="M32.0291 41.9999H24.7773V38.3405H32.0291C35.4871 38.3405 38.3073 35.5204 38.3073 32.0624V24.7771H41.9667V32.0288C42.0003 37.5012 37.5015 41.9999 32.0291 41.9999Z" stroke="#7553FF"/>
</g>
<g id="Vector_3">
<path d="M42.0003 17.2222H38.3408V9.9705C38.3408 6.51251 35.5207 3.69239 32.0626 3.69239H24.7773V0.032959H32.0291C37.5351 0.032959 42.0003 4.49814 42.0003 10.0041V17.2222Z" fill="#7553FF"/>
<path d="M42.0003 17.2222H38.3408V9.9705C38.3408 6.51251 35.5207 3.69239 32.0626 3.69239H24.7773V0.032959H32.0291C37.5351 0.032959 42.0003 4.49814 42.0003 10.0041V17.2222Z" stroke="#7553FF"/>
</g>
<g id="Vector_4">
<path d="M3.69413 17.2228H0.0346985V9.9711C0.0346985 4.46518 4.49991 0 10.0059 0H17.2577V3.65942H10.0059C6.54787 3.65942 3.72774 6.47953 3.72774 9.93752V17.2228H3.69413Z" fill="#7553FF"/>
<path d="M3.69413 17.2228H0.0346985V9.9711C0.0346985 4.46518 4.49991 0 10.0059 0H17.2577V3.65942H10.0059C6.54787 3.65942 3.72774 6.47953 3.72774 9.93752V17.2228H3.69413Z" stroke="#7553FF"/>
</g>
</g>
</svg>
