<svg xmlns="http://www.w3.org/2000/svg" width="24" height="24" viewBox="0 0 24 24" fill="none">
  <path
    d="M9.27875 13.327H11.125V10.7693H12.971V13.327H14.8173V8.923L12.048 7.077L9.27875 8.923V13.327ZM12.048 20.0135C14.0043 18.2622 15.5014 16.5823 16.5393 14.974C17.5771 13.3657 18.096 11.957 18.096 10.748C18.096 8.925 17.5168 7.42633 16.3585 6.252C15.2002 5.07767 13.7633 4.4905 12.048 4.4905C10.3327 4.4905 8.89583 5.07767 7.7375 6.252C6.57917 7.42633 6 8.925 6 10.748C6 11.957 6.51892 13.3657 7.55675 14.974C8.59458 16.5823 10.0917 18.2622 12.048 20.0135ZM12.048 21.4402C11.8532 21.4402 11.6583 21.4067 11.4635 21.3395C11.2685 21.2722 11.0922 21.168 10.9345 21.027C10.0372 20.2 9.19742 19.3483 8.41525 18.472C7.63325 17.5958 6.9535 16.7199 6.376 15.8443C5.79833 14.9686 5.34125 14.1007 5.00475 13.2405C4.66825 12.3802 4.5 11.5493 4.5 10.748C4.5 8.44033 5.24642 6.57208 6.73925 5.14325C8.23225 3.71442 10.0018 3 12.048 3C14.0942 3 15.8637 3.71442 17.3568 5.14325C18.8496 6.57208 19.596 8.44033 19.596 10.748C19.596 11.5493 19.4278 12.3785 19.0913 13.2355C18.7548 14.0927 18.2993 14.9607 17.725 15.8395C17.1505 16.7183 16.4723 17.5943 15.6903 18.4673C14.9083 19.3404 14.0685 20.1904 13.171 21.0173C13.0133 21.1583 12.8355 21.264 12.6375 21.3345C12.4393 21.405 12.2428 21.4402 12.048 21.4402Z"
    fill="#29B637" />
</svg>