<svg width="18" height="19" viewBox="0 0 18 19" fill="none" xmlns="http://www.w3.org/2000/svg">
<path d="M13.8862 18.3837C12.9237 18.3837 12.0998 18.041 11.4144 17.3557C10.7291 16.6702 10.3864 15.8462 10.3864 14.8837C10.3864 13.9212 10.7291 13.0972 11.4144 12.4119C12.0998 11.7266 12.9237 11.3839 13.8862 11.3839C14.8487 11.3839 15.6727 11.7266 16.3582 12.4119C17.0435 13.0972 17.3862 13.9212 17.3862 14.8837C17.3862 15.8462 17.0435 16.6702 16.3582 17.3557C15.6727 18.041 14.8487 18.3837 13.8862 18.3837ZM13.8862 16.8837C14.4362 16.8837 14.907 16.6878 15.2987 16.2962C15.6904 15.9045 15.8862 15.4337 15.8862 14.8837C15.8862 14.3337 15.6904 13.8628 15.2987 13.4712C14.907 13.0795 14.4362 12.8837 13.8862 12.8837C13.3362 12.8837 12.8654 13.0795 12.4737 13.4712C12.082 13.8628 11.8862 14.3337 11.8862 14.8837C11.8862 15.4337 12.082 15.9045 12.4737 16.2962C12.8654 16.6878 13.3362 16.8837 13.8862 16.8837ZM4.11719 15.3837C3.15469 15.3837 2.33069 15.041 1.64519 14.3557C0.959854 13.6702 0.617188 12.8462 0.617188 11.8837C0.617188 10.9212 0.959854 10.0972 1.64519 9.41191C2.33069 8.72657 3.15469 8.38391 4.11719 8.38391C5.07969 8.38391 5.9036 8.72657 6.58894 9.41191C7.27427 10.0972 7.61694 10.9212 7.61694 11.8837C7.61694 12.8462 7.27427 13.6702 6.58894 14.3557C5.9036 15.041 5.07969 15.3837 4.11719 15.3837ZM4.11719 13.8837C4.66719 13.8837 5.13802 13.6878 5.52969 13.2962C5.92135 12.9045 6.11719 12.4337 6.11719 11.8837C6.11719 11.3337 5.92135 10.8628 5.52969 10.4712C5.13802 10.0795 4.66719 9.88366 4.11719 9.88366C3.56719 9.88366 3.09635 10.0795 2.70469 10.4712C2.31302 10.8628 2.11719 11.3337 2.11719 11.8837C2.11719 12.4337 2.31302 12.9045 2.70469 13.2962C3.09635 13.6878 3.56719 13.8837 4.11719 13.8837ZM8.00169 7.69141C7.03919 7.69141 6.21527 7.34874 5.52994 6.66341C4.84444 5.97791 4.50169 5.15391 4.50169 4.19141C4.50169 3.22891 4.84444 2.40499 5.52994 1.71966C6.21527 1.03416 7.03919 0.691406 8.00169 0.691406C8.96419 0.691406 9.7881 1.03416 10.4734 1.71966C11.1589 2.40499 11.5017 3.22891 11.5017 4.19141C11.5017 5.15391 11.1589 5.97791 10.4734 6.66341C9.7881 7.34874 8.96419 7.69141 8.00169 7.69141ZM8.00169 6.19141C8.55169 6.19141 9.02252 5.99557 9.41419 5.60391C9.80585 5.21224 10.0017 4.74141 10.0017 4.19141C10.0017 3.64141 9.80585 3.17057 9.41419 2.77891C9.02252 2.38724 8.55169 2.19141 8.00169 2.19141C7.45169 2.19141 6.98085 2.38724 6.58919 2.77891C6.19752 3.17057 6.00169 3.64141 6.00169 4.19141C6.00169 4.74141 6.19752 5.21224 6.58919 5.60391C6.98085 5.99557 7.45169 6.19141 8.00169 6.19141Z" fill="#E8EAED"/>
</svg>
