<svg width="44" height="44" viewBox="0 0 44 44" fill="none" xmlns="http://www.w3.org/2000/svg">
<g filter="url(#filter0_b_2916_54618)">
<path d="M2 22C2 10.9543 10.9543 2 22 2C33.0457 2 42 10.9543 42 22C42 33.0457 33.0457 42 22 42C10.9543 42 2 33.0457 2 22Z" fill="#7553FF"/>
<path d="M2 22C2 10.9543 10.9543 2 22 2C33.0457 2 42 10.9543 42 22C42 33.0457 33.0457 42 22 42C10.9543 42 2 33.0457 2 22Z" stroke="#3F3956" stroke-width="4"/>
<g clip-path="url(#clip0_2916_54618)">
<path d="M15 22H29" stroke="white" stroke-width="1.5" stroke-linecap="round" stroke-linejoin="round"/>
</g>
</g>
<defs>
<filter id="filter0_b_2916_54618" x="-50.8884" y="-50.8884" width="145.777" height="145.777" filterUnits="userSpaceOnUse" color-interpolation-filters="sRGB">
<feFlood flood-opacity="0" result="BackgroundImageFix"/>
<feGaussianBlur in="BackgroundImageFix" stdDeviation="25.4442"/>
<feComposite in2="SourceAlpha" operator="in" result="effect1_backgroundBlur_2916_54618"/>
<feBlend mode="normal" in="SourceGraphic" in2="effect1_backgroundBlur_2916_54618" result="shape"/>
</filter>
<clipPath id="clip0_2916_54618">
<rect width="24" height="24" fill="white" transform="translate(10 10)"/>
</clipPath>
</defs>
</svg>
