<svg width="24" height="24" viewBox="0 0 24 24" fill="none" xmlns="http://www.w3.org/2000/svg">
<path d="M6 1.25C5.58579 1.25 5.25 1.58579 5.25 2C5.25 2.41421 5.58579 2.75 6 2.75V1.25ZM7.167 12.4086L6.5622 11.9651L7.167 12.4086ZM8.20641 10.9913L8.81121 11.4348L8.20641 10.9913ZM7.65 3V10.3999H9.15V3H7.65ZM7.6016 10.5477L6.5622 11.9651L7.7718 12.8522L8.81121 11.4348L7.6016 10.5477ZM7.97341 14.75H12V13.25H7.97341V14.75ZM9.4 2.75H12V1.25H9.4V2.75ZM6 2.75H12V1.25H6V2.75ZM6.5622 11.9651C5.71452 13.121 6.53998 14.75 7.97341 14.75V13.25C7.76863 13.25 7.65071 13.0173 7.7718 12.8522L6.5622 11.9651ZM7.65 10.3999C7.65 10.4531 7.63305 10.5049 7.6016 10.5477L8.81121 11.4348C9.03132 11.1346 9.15 10.7721 9.15 10.3999H7.65ZM9.15 3C9.15 2.86193 9.26193 2.75 9.4 2.75V1.25C8.4335 1.25 7.65 2.0335 7.65 3H9.15Z" fill="white"/>
<path d="M12 14V22" stroke="white" stroke-width="1.5" stroke-linecap="round"/>
<path d="M18 1.25C18.4142 1.25 18.75 1.58579 18.75 2C18.75 2.41421 18.4142 2.75 18 2.75V1.25ZM16.833 12.4086L17.4378 11.9651L16.833 12.4086ZM15.7936 10.9913L15.1888 11.4348L15.7936 10.9913ZM16.35 3V10.3999H14.85V3H16.35ZM16.3984 10.5477L17.4378 11.9651L16.2282 12.8522L15.1888 11.4348L16.3984 10.5477ZM16.0266 14.75H12V13.25H16.0266V14.75ZM14.6 2.75H12V1.25H14.6V2.75ZM18 2.75H12V1.25H18V2.75ZM17.4378 11.9651C18.2855 13.121 17.46 14.75 16.0266 14.75V13.25C16.2314 13.25 16.3493 13.0173 16.2282 12.8522L17.4378 11.9651ZM16.35 10.3999C16.35 10.4531 16.367 10.5049 16.3984 10.5477L15.1888 11.4348C14.9687 11.1346 14.85 10.7721 14.85 10.3999H16.35ZM14.85 3C14.85 2.86193 14.7381 2.75 14.6 2.75V1.25C15.5665 1.25 16.35 2.0335 16.35 3H14.85Z" fill="white"/>
</svg>
