<svg xmlns="http://www.w3.org/2000/svg" width="24" height="24" viewBox="0 0 24 24" fill="none">
  <path
    d="M11 19.4995C10.5014 19.4995 10.0754 19.323 9.72227 18.9698C9.36894 18.6165 9.19227 18.1905 9.19227 17.6918V15.6918C9.19227 15.1931 9.36894 14.7672 9.72227 14.414C10.0754 14.0607 10.5014 13.884 11 13.884H13C13.4987 13.884 13.9246 14.0607 14.2778 14.414C14.6311 14.7672 14.8078 15.1931 14.8078 15.6918V17.6918C14.8078 18.1905 14.6311 18.6165 14.2778 18.9698C13.9246 19.323 13.4987 19.4995 13 19.4995H11ZM11 17.9995H13C13.0899 17.9995 13.1636 17.9707 13.2213 17.913C13.2789 17.8554 13.3078 17.7816 13.3078 17.6918V15.6918C13.3078 15.6021 13.2789 15.5284 13.2213 15.4705C13.1636 15.4129 13.0899 15.384 13 15.384H11C10.9102 15.384 10.8364 15.4129 10.7788 15.4705C10.7211 15.5284 10.6923 15.6021 10.6923 15.6918V17.6918C10.6923 17.7816 10.7211 17.8554 10.7788 17.913C10.8364 17.9707 10.9102 17.9995 11 17.9995ZM3.00002 12.1688C2.82435 12.2906 2.63844 12.3396 2.44227 12.3158C2.2461 12.2921 2.08394 12.1925 1.95577 12.0168C1.8276 11.8411 1.77794 11.6552 1.80677 11.459C1.8356 11.263 1.93269 11.1009 2.09802 10.9725L10.9 4.3188C11.0642 4.1983 11.2408 4.10955 11.4298 4.05255C11.6189 3.99538 11.809 3.9668 12 3.9668C12.191 3.9668 12.3811 3.99538 12.5703 4.05255C12.7593 4.10955 12.9359 4.1983 13.1 4.3188L16.173 6.63605V5.7208C16.173 5.38096 16.2916 5.09246 16.5288 4.8553C16.7659 4.61813 17.0544 4.49955 17.3943 4.49955C17.7339 4.49955 18.0224 4.61813 18.2595 4.8553C18.4967 5.09246 18.6153 5.38096 18.6153 5.7208V8.4843L21.927 10.9725C22.0924 11.1009 22.1869 11.263 22.2105 11.459C22.2342 11.6552 22.1819 11.8411 22.0538 12.0168C21.9256 12.1925 21.7634 12.2921 21.5673 12.3158C21.3711 12.3396 21.1852 12.2906 21.0095 12.1688L12.1828 5.52455C12.1314 5.48605 12.0705 5.4668 12 5.4668C11.9295 5.4668 11.8686 5.48605 11.8173 5.52455L3.00002 12.1688Z"
    fill="#456ED7" />
</svg>