<svg width="24" height="24" viewBox="0 0 24 24" fill="none" xmlns="http://www.w3.org/2000/svg">
<g id="eye-off">
<path id="Vector 752" d="M8.28378 19.2405C7.42606 18.0763 5.49346 16.4594 4.06444 15.3582C3.4621 14.8941 3.26845 14.0625 3.62761 13.3922V13.3922C4.03634 12.6294 4.9997 12.3631 5.74216 12.8077L7.30059 13.7409C7.73352 14.0001 8.28378 13.6882 8.28378 13.1836V2.60811C8.28378 1.71997 9.00376 1 9.89189 1V1C10.78 1 11.5 1.71998 11.5 2.60811V11.7572V6.81745C11.5 5.92932 12.22 5.20934 13.1081 5.20934V5.20934C13.9962 5.20934 14.7162 5.92932 14.7162 6.81745V11.7572V8.45854C14.7162 7.69728 15.3333 7.08016 16.0946 7.08016V7.08016C16.8559 7.08016 17.473 7.69728 17.473 8.45854V11.9911V10.2145C17.473 9.51668 18.0387 8.95098 18.7365 8.95098V8.95098C19.4343 8.95098 20 9.51584 20 10.2137C20 12.8687 20 16.8749 20 18.3051C20 20.4097 18.1622 22.7483 14.4865 22.9821C10.8108 23.216 9.66216 21.1113 8.28378 19.2405Z" stroke="white" stroke-width="1.5"/>
</g>
</svg>
