<svg width="104" height="40" viewBox="0 0 104 40" fill="none" xmlns="http://www.w3.org/2000/svg">
<path d="M0 20C0 8.9543 8.95431 0 20 0H84C95.0457 0 104 8.9543 104 20V20C104 31.0457 95.0457 40 84 40H20C8.95431 40 0 31.0457 0 20V20Z" fill="#7553FF"/>
<g clip-path="url(#clip0_4254_11645)">
<path d="M33 29V27C33 25.9391 32.5786 24.9217 31.8284 24.1716C31.0783 23.4214 30.0609 23 29 23H21C19.9391 23 18.9217 23.4214 18.1716 24.1716C17.4214 24.9217 17 25.9391 17 27V29" stroke="white" stroke-width="1.5" stroke-linecap="round" stroke-linejoin="round"/>
<path d="M25 19C27.2091 19 29 17.2091 29 15C29 12.7909 27.2091 11 25 11C22.7909 11 21 12.7909 21 15C21 17.2091 22.7909 19 25 19Z" stroke="white" stroke-width="1.5" stroke-linecap="round" stroke-linejoin="round"/>
<path d="M39 28.9989V26.9989C38.9993 26.1126 38.7044 25.2517 38.1614 24.5512C37.6184 23.8508 36.8581 23.3505 36 23.1289" stroke="white" stroke-width="1.5" stroke-linecap="round" stroke-linejoin="round"/>
<path d="M32 11.1289C32.8604 11.3492 33.623 11.8496 34.1676 12.5512C34.7122 13.2528 35.0078 14.1157 35.0078 15.0039C35.0078 15.8921 34.7122 16.755 34.1676 17.4566C33.623 18.1582 32.8604 18.6586 32 18.8789" stroke="white" stroke-width="1.5" stroke-linecap="round" stroke-linejoin="round"/>
</g>
<path d="M52.6903 24.64C51.8223 24.64 51.0943 24.514 50.5063 24.262C49.9276 24.0007 49.4843 23.6647 49.1763 23.254C48.8776 22.834 48.719 22.3953 48.7003 21.938C48.7003 21.854 48.7283 21.784 48.7843 21.728C48.8403 21.672 48.9103 21.644 48.9943 21.644H50.2403C50.3616 21.644 50.4503 21.672 50.5063 21.728C50.5716 21.7747 50.6276 21.8353 50.6743 21.91C50.7303 22.0873 50.8376 22.2647 50.9963 22.442C51.155 22.61 51.3696 22.75 51.6403 22.862C51.9203 22.974 52.2703 23.03 52.6903 23.03C53.3623 23.03 53.8616 22.918 54.1883 22.694C54.5243 22.47 54.6923 22.1667 54.6923 21.784C54.6923 21.5133 54.6036 21.2987 54.4263 21.14C54.249 20.972 53.9736 20.8227 53.6003 20.692C53.2363 20.552 52.751 20.4073 52.1443 20.258C51.4443 20.09 50.8563 19.8893 50.3803 19.656C49.9136 19.4133 49.559 19.11 49.3163 18.746C49.083 18.382 48.9663 17.92 48.9663 17.36C48.9663 16.8187 49.111 16.338 49.4003 15.918C49.699 15.498 50.119 15.1667 50.6603 14.924C51.211 14.6813 51.8643 14.56 52.6203 14.56C53.227 14.56 53.7636 14.644 54.2303 14.812C54.697 14.9707 55.0843 15.1853 55.3923 15.456C55.7003 15.7173 55.9336 16.002 56.0923 16.31C56.2603 16.6087 56.349 16.9027 56.3583 17.192C56.3583 17.2667 56.3303 17.3367 56.2743 17.402C56.2276 17.458 56.1576 17.486 56.0643 17.486H54.7623C54.6876 17.486 54.613 17.4673 54.5383 17.43C54.4636 17.3927 54.403 17.3227 54.3563 17.22C54.3003 16.9307 54.1183 16.6833 53.8103 16.478C53.5023 16.2727 53.1056 16.17 52.6203 16.17C52.1163 16.17 51.7103 16.2633 51.4023 16.45C51.0943 16.6367 50.9403 16.926 50.9403 17.318C50.9403 17.5793 51.015 17.7987 51.1643 17.976C51.323 18.144 51.5703 18.2933 51.9063 18.424C52.2516 18.5547 52.7043 18.6947 53.2643 18.844C54.0576 19.0213 54.7063 19.2267 55.2103 19.46C55.7143 19.6933 56.083 19.992 56.3163 20.356C56.5496 20.7107 56.6663 21.1633 56.6663 21.714C56.6663 22.33 56.4983 22.8573 56.1623 23.296C55.8356 23.7253 55.3736 24.0567 54.7763 24.29C54.179 24.5233 53.4836 24.64 52.6903 24.64ZM58.4527 24.5C58.3594 24.5 58.28 24.4673 58.2147 24.402C58.1494 24.3367 58.1167 24.2573 58.1167 24.164V14.896C58.1167 14.8027 58.1494 14.7233 58.2147 14.658C58.28 14.5927 58.3594 14.56 58.4527 14.56H59.6987C59.8014 14.56 59.8807 14.5927 59.9367 14.658C60.002 14.7233 60.0347 14.8027 60.0347 14.896V18.088C60.2867 17.7893 60.5947 17.5467 60.9587 17.36C61.3227 17.1733 61.7707 17.08 62.3027 17.08C62.872 17.08 63.3667 17.2107 63.7867 17.472C64.216 17.724 64.5474 18.0833 64.7807 18.55C65.014 19.0167 65.1307 19.5767 65.1307 20.23V24.164C65.1307 24.2573 65.098 24.3367 65.0327 24.402C64.9674 24.4673 64.888 24.5 64.7947 24.5H63.5347C63.4414 24.5 63.362 24.4673 63.2967 24.402C63.2314 24.3367 63.1987 24.2573 63.1987 24.164V20.314C63.1987 19.7727 63.0634 19.348 62.7927 19.04C62.5314 18.732 62.1487 18.578 61.6447 18.578C61.1594 18.578 60.7674 18.732 60.4687 19.04C60.1794 19.348 60.0347 19.7727 60.0347 20.314V24.164C60.0347 24.2573 60.002 24.3367 59.9367 24.402C59.8807 24.4673 59.8014 24.5 59.6987 24.5H58.4527ZM69.0214 24.64C68.5361 24.64 68.0974 24.5467 67.7054 24.36C67.3134 24.164 67.0007 23.9073 66.7674 23.59C66.5434 23.2633 66.4314 22.8993 66.4314 22.498C66.4314 21.8447 66.6927 21.3267 67.2154 20.944C67.7474 20.552 68.4474 20.2907 69.3154 20.16L71.2334 19.88V19.586C71.2334 19.194 71.1354 18.8907 70.9394 18.676C70.7434 18.4613 70.4074 18.354 69.9314 18.354C69.5954 18.354 69.3201 18.424 69.1054 18.564C68.9001 18.6947 68.7461 18.872 68.6434 19.096C68.5687 19.2173 68.4614 19.278 68.3214 19.278H67.2154C67.1127 19.278 67.0334 19.25 66.9774 19.194C66.9307 19.138 66.9074 19.0633 66.9074 18.97C66.9167 18.8207 66.9774 18.6387 67.0894 18.424C67.2014 18.2093 67.3787 18.004 67.6214 17.808C67.8641 17.6027 68.1767 17.43 68.5594 17.29C68.9421 17.15 69.4041 17.08 69.9454 17.08C70.5334 17.08 71.0281 17.1547 71.4294 17.304C71.8401 17.444 72.1667 17.6353 72.4094 17.878C72.6521 18.1207 72.8294 18.4053 72.9414 18.732C73.0534 19.0587 73.1094 19.404 73.1094 19.768V24.164C73.1094 24.2573 73.0767 24.3367 73.0114 24.402C72.9461 24.4673 72.8667 24.5 72.7734 24.5H71.6394C71.5367 24.5 71.4527 24.4673 71.3874 24.402C71.3314 24.3367 71.3034 24.2573 71.3034 24.164V23.618C71.1821 23.7953 71.0187 23.9633 70.8134 24.122C70.6081 24.2713 70.3561 24.3973 70.0574 24.5C69.7681 24.5933 69.4227 24.64 69.0214 24.64ZM69.4974 23.31C69.8241 23.31 70.1181 23.24 70.3794 23.1C70.6501 22.96 70.8601 22.7453 71.0094 22.456C71.1681 22.1573 71.2474 21.784 71.2474 21.336V21.042L69.8474 21.266C69.2967 21.35 68.8861 21.4853 68.6154 21.672C68.3447 21.8587 68.2094 22.0873 68.2094 22.358C68.2094 22.5633 68.2701 22.7407 68.3914 22.89C68.5221 23.03 68.6854 23.1373 68.8814 23.212C69.0774 23.2773 69.2827 23.31 69.4974 23.31ZM75.2414 24.5C75.1481 24.5 75.0688 24.4673 75.0034 24.402C74.9381 24.3367 74.9054 24.2573 74.9054 24.164V17.57C74.9054 17.4673 74.9381 17.3833 75.0034 17.318C75.0688 17.2527 75.1481 17.22 75.2414 17.22H76.3754C76.4688 17.22 76.5481 17.2527 76.6134 17.318C76.6881 17.3833 76.7254 17.4673 76.7254 17.57V18.144C76.9401 17.8453 77.2154 17.6167 77.5514 17.458C77.8968 17.2993 78.2934 17.22 78.7414 17.22H79.3154C79.4181 17.22 79.4974 17.2527 79.5534 17.318C79.6188 17.3833 79.6514 17.4627 79.6514 17.556V18.564C79.6514 18.6573 79.6188 18.7367 79.5534 18.802C79.4974 18.8673 79.4181 18.9 79.3154 18.9H78.2234C77.7754 18.9 77.4254 19.026 77.1734 19.278C76.9308 19.53 76.8094 19.8753 76.8094 20.314V24.164C76.8094 24.2573 76.7768 24.3367 76.7114 24.402C76.6461 24.4673 76.5621 24.5 76.4594 24.5H75.2414ZM83.7836 24.64C82.7476 24.64 81.9263 24.3413 81.3196 23.744C80.713 23.1467 80.3863 22.2973 80.3396 21.196C80.3303 21.1027 80.3256 20.986 80.3256 20.846C80.3256 20.6967 80.3303 20.58 80.3396 20.496C80.377 19.796 80.5356 19.1893 80.8156 18.676C81.105 18.1627 81.5016 17.7707 82.0056 17.5C82.5096 17.22 83.1023 17.08 83.7836 17.08C84.5396 17.08 85.1743 17.2387 85.6876 17.556C86.201 17.864 86.5883 18.298 86.8496 18.858C87.111 19.4087 87.2416 20.048 87.2416 20.776V21.07C87.2416 21.1633 87.209 21.2427 87.1436 21.308C87.0783 21.3733 86.9943 21.406 86.8916 21.406H82.2436C82.2436 21.406 82.2436 21.42 82.2436 21.448C82.2436 21.476 82.2436 21.4993 82.2436 21.518C82.253 21.8447 82.3136 22.148 82.4256 22.428C82.547 22.6987 82.7196 22.918 82.9436 23.086C83.177 23.254 83.4523 23.338 83.7696 23.338C84.031 23.338 84.2503 23.3007 84.4276 23.226C84.605 23.142 84.7496 23.0487 84.8616 22.946C84.9736 22.8433 85.053 22.7593 85.0996 22.694C85.1836 22.582 85.249 22.5167 85.2956 22.498C85.3516 22.47 85.431 22.456 85.5336 22.456H86.7376C86.831 22.456 86.9056 22.484 86.9616 22.54C87.027 22.596 87.055 22.666 87.0456 22.75C87.0363 22.8993 86.957 23.0813 86.8076 23.296C86.6676 23.5107 86.4623 23.7207 86.1916 23.926C85.921 24.1313 85.5803 24.304 85.1696 24.444C84.7683 24.5747 84.3063 24.64 83.7836 24.64ZM82.2436 20.23H85.3376V20.188C85.3376 19.824 85.277 19.5067 85.1556 19.236C85.0343 18.9653 84.857 18.7507 84.6236 18.592C84.3903 18.4333 84.1103 18.354 83.7836 18.354C83.457 18.354 83.177 18.4333 82.9436 18.592C82.7103 18.7507 82.533 18.9653 82.4116 19.236C82.2996 19.5067 82.2436 19.824 82.2436 20.188V20.23Z" fill="white"/>
<defs>
<clipPath id="clip0_4254_11645">
<rect width="24" height="24" fill="white" transform="translate(16 8)"/>
</clipPath>
</defs>
</svg>
