<svg width="16" height="16" viewBox="0 0 16 16" fill="none" xmlns="http://www.w3.org/2000/svg">
<path d="M2 4H3.33333H14" stroke="white" stroke-linecap="round" stroke-linejoin="round"/>
<path d="M12.6654 3.9987V13.332C12.6654 13.6857 12.5249 14.0248 12.2748 14.2748C12.0248 14.5249 11.6857 14.6654 11.332 14.6654H4.66536C4.31174 14.6654 3.9726 14.5249 3.72256 14.2748C3.47251 14.0248 3.33203 13.6857 3.33203 13.332V3.9987M5.33203 3.9987V2.66536C5.33203 2.31174 5.47251 1.9726 5.72256 1.72256C5.9726 1.47251 6.31174 1.33203 6.66536 1.33203H9.33203C9.68565 1.33203 10.0248 1.47251 10.2748 1.72256C10.5249 1.9726 10.6654 2.31174 10.6654 2.66536V3.9987" stroke="white" stroke-linecap="round" stroke-linejoin="round"/>
<path d="M6.66797 7.33203V11.332" stroke="white" stroke-linecap="round" stroke-linejoin="round"/>
<path d="M9.33203 7.33203V11.332" stroke="white" stroke-linecap="round" stroke-linejoin="round"/>
</svg>
